<?xml version="1.0" standalone="no"?>
<!DOCTYPE svg PUBLIC "-//W3C//DTD SVG 20010904//EN"
 "http://www.w3.org/TR/2001/REC-SVG-20010904/DTD/svg10.dtd">
<svg version="1.0" xmlns="http://www.w3.org/2000/svg"
 width="900.000000pt" height="819.000000pt" viewBox="0 0 900.000000 819.000000"
 preserveAspectRatio="xMidYMid meet">
<metadata>
Created by potrace 1.10, written by Peter Selinger 2001-2011
</metadata>
<g transform="translate(0.000000,819.000000) scale(0.100000,-0.100000)"
fill="#ff0000" stroke="none">
<path d="M4880 7740 c-14 -4 -47 -8 -73 -9 -104 -2 -440 -87 -562 -141 -11 -5
-42 -18 -70 -29 -73 -28 -266 -120 -296 -142 -14 -9 -37 -21 -52 -24 -15 -4
-27 -11 -27 -15 0 -4 -8 -10 -17 -14 -10 -3 -31 -15 -48 -26 -16 -11 -40 -24
-53 -30 -13 -5 -38 -21 -56 -35 -18 -14 -36 -25 -39 -25 -23 0 -345 -234 -436
-316 -74 -67 -211 -213 -211 -225 0 -3 -9 -17 -21 -30 -30 -34 -120 -176 -146
-229 -11 -25 -33 -69 -47 -99 -49 -100 -69 -209 -64 -336 6 -125 34 -190 119
-276 89 -89 184 -128 334 -136 103 -5 177 3 280 32 33 9 77 20 98 26 21 5 45
13 55 19 23 12 152 70 158 70 18 0 229 129 424 259 129 86 242 161 252 166 9
6 70 42 135 81 65 38 145 84 178 101 33 17 80 42 105 55 25 12 72 34 105 46
33 13 74 30 90 37 17 7 41 18 55 24 39 16 127 32 213 38 186 12 316 -70 383
-242 16 -41 19 -75 19 -195 0 -146 -13 -226 -52 -320 -8 -19 -19 -46 -25 -60
-50 -120 -153 -292 -271 -448 -112 -150 -353 -399 -512 -530 -55 -46 -116 -96
-135 -112 -42 -35 -91 -70 -145 -106 -22 -14 -58 -38 -80 -54 -62 -42 -227
-130 -320 -170 -27 -12 -64 -28 -82 -36 -17 -8 -40 -14 -51 -14 -10 0 -33 -5
-51 -11 -65 -23 -131 21 -131 88 0 82 39 134 285 378 266 264 295 303 295 403
0 103 -49 173 -159 229 -48 25 -66 28 -150 28 -98 0 -155 -14 -226 -57 -16
-10 -41 -23 -55 -30 -14 -7 -27 -15 -30 -18 -3 -3 -23 -18 -45 -35 -53 -40
-146 -135 -199 -204 -37 -48 -64 -93 -127 -211 -52 -98 -99 -280 -99 -386 0
-215 112 -387 285 -436 52 -15 264 -15 337 -1 72 15 260 73 272 84 6 5 16 9
24 9 26 0 323 151 425 217 23 15 49 32 59 38 9 5 56 34 105 64 48 30 90 58 93
61 3 4 37 29 75 55 39 27 84 58 100 69 17 12 64 48 105 81 260 207 490 428
624 600 22 27 42 52 45 55 8 6 76 104 123 178 21 31 53 86 71 122 19 36 45 85
58 110 13 25 41 90 63 145 21 55 42 109 46 120 28 71 71 254 90 385 21 148 5
391 -36 525 -17 55 -21 65 -58 145 -80 172 -208 328 -355 430 -20 14 -45 33
-56 44 -36 32 -219 114 -326 145 -57 17 -142 35 -189 42 -108 14 -367 21 -400
9z"/>
<path d="M2770 3002 c-76 -39 -99 -58 -132 -107 -32 -49 -33 -53 -33 -155 l0
-106 38 -52 c45 -61 75 -83 141 -106 89 -29 166 -18 255 38 107 68 144 242 79
370 -23 45 -43 66 -103 104 -54 35 -191 43 -245 14z"/>
<path d="M7779 2795 c-3 -2 -49 -11 -104 -20 -55 -8 -145 -23 -200 -33 l-100
-17 0 -920 c0 -999 -2 -957 57 -1082 20 -43 48 -80 91 -119 106 -97 205 -127
416 -128 180 0 173 -7 169 159 l-3 120 -77 7 c-137 12 -203 67 -218 181 -4 34
-7 462 -6 950 1 845 -1 926 -25 902z"/>
<path d="M5010 2775 c-222 -33 -296 -47 -305 -58 -7 -8 -8 -327 -5 -937 5
-852 7 -929 23 -970 38 -97 58 -131 109 -182 105 -105 239 -148 459 -148 122
0 139 2 147 18 10 19 15 193 7 233 -6 25 -10 26 -85 32 -95 6 -151 38 -190
107 l-25 45 -3 518 c-2 386 0 522 9 533 9 11 43 14 150 14 165 0 151 -16 147
175 l-3 130 -140 5 c-77 3 -146 9 -152 13 -10 6 -13 67 -13 248 l0 239 -22 -1
c-13 -1 -61 -7 -108 -14z"/>
<path d="M1545 2324 c-75 -7 -255 -50 -310 -74 -11 -5 -31 -12 -45 -16 -44
-12 -190 -85 -190 -95 0 -5 9 -28 19 -52 66 -145 91 -197 96 -197 3 0 13 4 23
9 51 26 113 51 162 66 30 9 66 21 80 26 56 20 205 30 274 19 136 -22 186 -85
194 -246 4 -89 4 -91 -19 -97 -13 -4 -105 -7 -204 -7 -238 0 -311 -14 -465
-89 -132 -64 -230 -185 -277 -341 -24 -83 -21 -238 6 -320 90 -272 304 -431
602 -447 271 -15 550 66 729 210 l65 53 3 529 c3 613 2 634 -72 784 -33 68
-144 176 -213 206 -32 15 -67 30 -78 35 -75 33 -265 55 -380 44z m295 -964 c6
-8 10 -127 10 -271 0 -284 4 -266 -70 -305 -28 -15 -59 -18 -156 -19 l-121 0
-50 34 c-27 18 -59 48 -70 65 -74 108 -69 301 9 396 23 29 111 90 127 90 10 0
21 4 27 9 14 15 60 19 177 17 84 -1 110 -4 117 -16z"/>
<path d="M4040 2300 c-199 -47 -358 -132 -518 -278 l-42 -38 0 -730 c0 -401 0
-737 0 -747 0 -16 15 -17 218 -15 l217 3 3 697 2 696 38 30 c45 36 67 47 125
67 69 23 177 34 258 25 40 -4 78 -6 84 -3 7 2 25 36 41 76 15 40 39 92 51 116
33 63 30 79 -14 89 -21 5 -59 14 -86 20 -71 18 -288 13 -377 -8z"/>
<path d="M6215 2298 c-33 -5 -64 -14 -69 -19 -6 -5 -16 -9 -24 -9 -8 0 -44
-14 -79 -32 -77 -38 -195 -147 -245 -228 -44 -71 -95 -177 -103 -215 -4 -16
-10 -39 -15 -50 -4 -11 -16 -54 -26 -95 -27 -108 -27 -454 -1 -555 24 -93 78
-235 88 -235 5 0 9 -5 9 -11 0 -38 119 -189 203 -257 37 -30 120 -73 182 -94
67 -23 215 -48 281 -48 142 0 398 61 483 115 20 12 47 26 61 30 30 9 96 50
104 64 9 14 -103 241 -118 241 -7 0 -25 -9 -39 -20 -14 -11 -31 -20 -39 -20
-7 0 -22 -6 -33 -14 -11 -7 -63 -28 -115 -46 -89 -31 -104 -33 -235 -34 -124
0 -145 2 -185 21 -140 67 -220 236 -220 464 0 49 1 90 3 91 1 2 223 5 492 8
l490 5 -3 100 c-6 196 -58 460 -103 520 -4 6 -18 31 -31 56 -54 107 -168 199
-303 244 -99 34 -280 44 -410 23z m215 -318 c42 -11 130 -82 130 -104 0 -6 7
-24 15 -39 23 -45 41 -193 25 -212 -10 -13 -49 -15 -251 -15 l-239 0 -6 25
c-13 51 22 188 62 241 44 59 83 89 141 106 32 9 63 15 70 13 6 -2 30 -9 53
-15z"/>
<path d="M3015 2280 c-16 -5 -61 -14 -100 -19 -38 -5 -108 -15 -155 -22 -47
-6 -88 -15 -93 -18 -9 -8 -10 -1707 -2 -1722 4 -5 93 -9 210 -9 204 0 205 0
210 23 3 12 4 416 3 897 -3 867 -3 875 -23 877 -11 1 -33 -2 -50 -7z"/>
</g>
</svg>
